<?xml version="1.0" standalone="yes"?>
<svg xmlns="http://www.w3.org/2000/svg" width="50" height="50">
<path style="fill:#f13f2f; stroke:none;" d="M0 0L0 50L50 50L50 0L0 0z"/>
<path style="fill:#f36458; stroke:none;" d="M20 9L21 10L20 9z"/>
<path style="fill:#f9b1ab; stroke:none;" d="M14 15L19 19C23.7509 10.8629 29.8724 17.7695 37 18C33.3446 7.28412 20.5051 6.38493 14 15z"/>
<path style="fill:#f6887f; stroke:none;" d="M29 9L30 10L29 9z"/>
<path style="fill:#f36458; stroke:none;" d="M33 11L34 12L33 11z"/>
<path style="fill:#f6887f; stroke:none;" d="M34 12L35 13L34 12z"/>
<path style="fill:#f36458; stroke:none;" d="M35 13L36 14L35 13z"/>
<path style="fill:#fffdfd; stroke:none;" d="M15 14C10.3226 29.9777 31.5605 24.034 35 36L36 36C40.2214 21.6812 22.1133 22.5834 15 14z"/>
<path style="fill:#f6887f; stroke:none;" d="M22 14L23 15L22 14M27 14L28 15L27 14M20 15L21 16L20 15M36 15L37 16L36 15M13.3333 17.6667L13.6667 18.3333L13.3333 17.6667z"/>
<path style="fill:#f36458; stroke:none;" d="M30 17L31 18L30 17M13 19L14 20L13 19M19 19L20 20L19 19z"/>
<path style="fill:#f6887f; stroke:none;" d="M21 20L22 21L21 20z"/>
<path style="fill:#f9b1ab; stroke:none;" d="M24 21L25 22L24 21z"/>
<path style="fill:#f6887f; stroke:none;" d="M25 21L26 22L25 21M14 22L15 23L14 22M29 22L30 23L29 22M32 23L33 24L32 23z"/>
<path style="fill:#f9b1ab; stroke:none;" d="M16 24L17 25L16 24z"/>
<path style="fill:#f36458; stroke:none;" d="M17 25L18 26L17 25M35 25L36 26L35 25z"/>
<path style="fill:#f9b1ab; stroke:none;" d="M20 26L21 27L20 26z"/>
<path style="fill:#f6887f; stroke:none;" d="M24 27L25 28L24 27M28 28L29 29L28 28z"/>
<path style="fill:#f9b1ab; stroke:none;" d="M32 30C27.6805 38.6155 20.2316 32.0813 13 32C16.5611 42.2289 28.105 41.8189 36 37L32 30z"/>
<path style="fill:#f6887f; stroke:none;" d="M37.3333 30.6667L37.6667 31.3333L37.3333 30.6667M13 31L13 32L19 32L13 31z"/>
<path style="fill:#f36458; stroke:none;" d="M19 31L20 32L19 31z"/>
<path style="fill:#f6887f; stroke:none;" d="M31 32L32 33L31 32z"/>
<path style="fill:#f36458; stroke:none;" d="M37 32L38 33L37 32z"/>
<path style="fill:#f6887f; stroke:none;" d="M20 33L21 34L20 33z"/>
<path style="fill:#f36458; stroke:none;" d="M29 34L30 35L29 34z"/>
<path style="fill:#f6887f; stroke:none;" d="M25.6667 35.3333L26.3333 35.6667L25.6667 35.3333z"/>
<path style="fill:#f36458; stroke:none;" d="M36 35L37 36L36 35z"/>
<path style="fill:#f6887f; stroke:none;" d="M17 38L18 39L17 38M33 38L34 39L33 38M19 39L20 40L19 39z"/>
<path style="fill:#f36458; stroke:none;" d="M22 40L23 41L22 40z"/>
<path style="fill:#f6887f; stroke:none;" d="M23 40L24 41L23 40M27.6667 40.3333L28.3333 40.6667L27.6667 40.3333z"/>
</svg>
