<?xml version="1.0" standalone="yes"?>
<svg xmlns="http://www.w3.org/2000/svg" width="50" height="50">
<path style="fill:#fefefe; stroke:none;" d="M0 0L0 50L50 50L50 0L0 0z"/>
<path style="fill:#9c9c9c; stroke:none;" d="M25 11L26 12L25 11z"/>
<path style="fill:#5b5b5b; stroke:none;" d="M25 33L26 33C26 27.1814 23.6365 15.4772 29 12C22.6422 10.572 25 28.8189 25 33z"/>
<path style="fill:#040404; stroke:none;" d="M26 12L26 33L29 33L30 21L32 21L33 33L36 33C36 27.6579 37.6201 14.6296 29 20L29 12L26 12z"/>
<path style="fill:#9c9c9c; stroke:none;" d="M29 12L29 19L30 19L29 12z"/>
<path style="fill:#2d2d2d; stroke:none;" d="M4 17L5 18L4 17z"/>
<path style="fill:#040404; stroke:none;" d="M5 17C5.45692 22.2401 6.26804 30.1055 11 33L14 23L16 33C21.3528 31.4355 21.9257 21.8876 23 17C18.9119 17.876 19.0454 23.3411 18 27L15 17C11.3704 19.2874 11.1784 22.9198 11 27L8 17L5 17z"/>
<path style="fill:#2d2d2d; stroke:none;" d="M12 17L13 18L12 17z"/>
<path style="fill:#5b5b5b; stroke:none;" d="M15 17L16 18L15 17z"/>
<path style="fill:#9c9c9c; stroke:none;" d="M19 17L20 18L19 17M23 17L24 18L23 17z"/>
<path style="fill:#5b5b5b; stroke:none;" d="M31 17L32 18L31 17z"/>
<path style="fill:#2d2d2d; stroke:none;" d="M33 17L34 18L33 17z"/>
<path style="fill:#9c9c9c; stroke:none;" d="M34 17L35 18L34 17z"/>
<path style="fill:#5b5b5b; stroke:none;" d="M4 18L5 19L4 18z"/>
<path style="fill:#9c9c9c; stroke:none;" d="M11 18L12 19L11 18z"/>
<path style="fill:#2d2d2d; stroke:none;" d="M15.3333 18.6667L15.6667 19.3333L15.3333 18.6667z"/>
<path style="fill:#5b5b5b; stroke:none;" d="M19.3333 18.6667L19.6667 19.3333L19.3333 18.6667z"/>
<path style="fill:#2d2d2d; stroke:none;" d="M30 18L31 19L30 18z"/>
<path style="fill:#9c9c9c; stroke:none;" d="M35 18L36 19L35 18M4 19L5 20L4 19M8.33333 19.6667L8.66667 20.3333L8.33333 19.6667z"/>
<path style="fill:#5b5b5b; stroke:none;" d="M11.3333 19.6667L11.6667 20.3333L11.3333 19.6667z"/>
<path style="fill:#2d2d2d; stroke:none;" d="M22 19L23 20L22 19M29 19L30 20L29 19M35 19L36 20L35 19z"/>
<path style="fill:#9c9c9c; stroke:none;" d="M16.3333 20.6667L16.6667 21.3333L16.3333 20.6667z"/>
<path style="fill:#2d2d2d; stroke:none;" d="M19.3333 20.6667L19.6667 21.3333L19.3333 20.6667z"/>
<path style="fill:#5b5b5b; stroke:none;" d="M22 20L23 21L22 20z"/>
<path style="fill:#9c9c9c; stroke:none;" d="M36 20L36 33L37 33L36 20z"/>
<path style="fill:#2d2d2d; stroke:none;" d="M5 21L6 22L5 21z"/>
<path style="fill:#5b5b5b; stroke:none;" d="M8.33333 21.6667L8.66667 22.3333L8.33333 21.6667z"/>
<path style="fill:#2d2d2d; stroke:none;" d="M11 21L12 22L11 21z"/>
<path style="fill:#9c9c9c; stroke:none;" d="M22 21L23 22L22 21z"/>
<path style="fill:#2d2d2d; stroke:none;" d="M30 21L31 22L30 21z"/>
<path style="fill:#5b5b5b; stroke:none;" d="M31 21L32 22L31 21M5 22L6 23L5 22z"/>
<path style="fill:#9c9c9c; stroke:none;" d="M10.3333 22.6667L10.6667 23.3333L10.3333 22.6667z"/>
<path style="fill:#5b5b5b; stroke:none;" d="M16 22L17 23L16 22z"/>
<path style="fill:#9c9c9c; stroke:none;" d="M18 22L17 26L18 26L18 22z"/>
<path style="fill:#2d2d2d; stroke:none;" d="M21.3333 22.6667L21.6667 23.3333L21.3333 22.6667z"/>
<path style="fill:#5b5b5b; stroke:none;" d="M29 22L30 23L29 22M32 22L33 23L32 22z"/>
<path style="fill:#9c9c9c; stroke:none;" d="M5 23L6 24L5 23z"/>
<path style="fill:#2d2d2d; stroke:none;" d="M8.33333 23.6667L8.66667 24.3333L8.33333 23.6667M13 23L15 25L13 23M16 23L17 24L16 23z"/>
<path style="fill:#9c9c9c; stroke:none;" d="M29 23L29 33L30 33L29 23M32 23L32 33L33 33L32 23z"/>
<path style="fill:#2d2d2d; stroke:none;" d="M6.33333 24.6667L6.66667 25.3333L6.33333 24.6667z"/>
<path style="fill:#5b5b5b; stroke:none;" d="M10 24L11 25L10 24z"/>
<path style="fill:#9c9c9c; stroke:none;" d="M13 24L14 28L15 28L13 24z"/>
<path style="fill:#5b5b5b; stroke:none;" d="M18 24L19 25L18 24M21 24L22 25L21 24z"/>
<path style="fill:#9c9c9c; stroke:none;" d="M9 25L10 26L9 25z"/>
<path style="fill:#2d2d2d; stroke:none;" d="M10.3333 25.6667L10.6667 26.3333L10.3333 25.6667z"/>
<path style="fill:#5b5b5b; stroke:none;" d="M14 25L15 26L14 25z"/>
<path style="fill:#2d2d2d; stroke:none;" d="M18 25L19 26L18 25z"/>
<path style="fill:#9c9c9c; stroke:none;" d="M21.3333 25.6667L21.6667 26.3333L21.3333 25.6667z"/>
<path style="fill:#5b5b5b; stroke:none;" d="M6 26L7 27L6 26M9 26L10 27L9 26z"/>
<path style="fill:#2d2d2d; stroke:none;" d="M12 26L13 27L12 26z"/>
<path style="fill:#5b5b5b; stroke:none;" d="M17 26L18 27L17 26z"/>
<path style="fill:#9c9c9c; stroke:none;" d="M6 27L7 28L6 27z"/>
<path style="fill:#5b5b5b; stroke:none;" d="M12 27L13 28L12 27z"/>
<path style="fill:#2d2d2d; stroke:none;" d="M20 27L21 28L20 27z"/>
<path style="fill:#5b5b5b; stroke:none;" d="M39 27L39 28L43 28L39 27z"/>
<path style="fill:#9c9c9c; stroke:none;" d="M43 27L43 33L44 33L43 27M12.3333 28.6667L12.6667 29.3333L12.3333 28.6667z"/>
<path style="fill:#2d2d2d; stroke:none;" d="M15 28L16 29L15 28z"/>
<path style="fill:#5b5b5b; stroke:none;" d="M20 28L21 29L20 28z"/>
<path style="fill:#2d2d2d; stroke:none;" d="M39 28L39 33L40 33L39 28z"/>
<path style="fill:#040404; stroke:none;" d="M40 28L40 33L43 33L43 28L40 28z"/>
<path style="fill:#2d2d2d; stroke:none;" d="M7 29L8 30L7 29z"/>
<path style="fill:#5b5b5b; stroke:none;" d="M15 29L16 30L15 29z"/>
<path style="fill:#9c9c9c; stroke:none;" d="M20 29L21 30L20 29z"/>
<path style="fill:#5b5b5b; stroke:none;" d="M7 30L8 31L7 30z"/>
<path style="fill:#2d2d2d; stroke:none;" d="M11.3333 30.6667L11.6667 31.3333L11.3333 30.6667z"/>
<path style="fill:#9c9c9c; stroke:none;" d="M15.3333 30.6667L15.6667 31.3333L15.3333 30.6667z"/>
<path style="fill:#2d2d2d; stroke:none;" d="M19.3333 30.6667L19.6667 31.3333L19.3333 30.6667z"/>
<path style="fill:#9c9c9c; stroke:none;" d="M7 31L8 32L7 31z"/>
<path style="fill:#2d2d2d; stroke:none;" d="M8 32L9 33L8 32z"/>
<path style="fill:#5b5b5b; stroke:none;" d="M11 32L12 33L11 32M19 32L20 33L19 32z"/>
</svg>
